<mxfile host="app.diagrams.net" modified="2024-02-26T09:01:51.625Z" agent="Mozilla/5.0 (Windows NT 10.0; Win64; x64) AppleWebKit/537.36 (KHTML, like Gecko) Chrome/122.0.0.0 Safari/537.36 Edg/122.0.0.0" version="23.1.6" etag="HEftVEvm5lM8rPhJdkvM" type="github">
  <diagram name="Page-1" id="Ki1D8UtHdd4gWEXQ3Y12">
    <mxGraphModel>
      <root>
        <mxCell id="0" />
        <mxCell id="1" parent="0" />
      </root>
    </mxGraphModel>
  </diagram>
</mxfile>
